HIERARCHY
ROOT Hips
{
  OFFSET -32.5998 29.0326 120.673
  CHANNELS 6 Xposition Yposition Zposition Zrotation Xrotation Yrotation
  JOINT LeftUpLeg
  {
    OFFSET 8.64259 1.95398 -2.38835
    CHANNELS 3 Zrotation Xrotation Yrotation
    JOINT LeftLeg
    {
      OFFSET 43.7702 0 0
      CHANNELS 3 Zrotation Xrotation Yrotation
      JOINT LeftFoot
      {
        OFFSET 40.6238 0 0
        CHANNELS 3 Zrotation Xrotation Yrotation
        JOINT LeftToeBase
        {
          OFFSET 12.7242 0 0
          CHANNELS 3 Zrotation Xrotation Yrotation
          End Site
          {
            OFFSET 0 0 0
          }
        }
      }
    }
  }
  JOINT RightUpLeg
  {
    OFFSET -8.2249 1.95398 -2.59336
    CHANNELS 3 Zrotation Xrotation Yrotation
    JOINT RightLeg
    {
      OFFSET 43.5653 0 0
      CHANNELS 3 Zrotation Xrotation Yrotation
      JOINT RightFoot
      {
        OFFSET 40.6238 0 0
        CHANNELS 3 Zrotation Xrotation Yrotation
        JOINT RightToeBase
        {
          OFFSET 12.7242 0 0
          CHANNELS 3 Zrotation Xrotation Yrotation
          End Site
          {
            OFFSET 0 0 0
          }
        }
      }
    }
  }
  JOINT Spine
  {
    OFFSET 0.165834 0.87714 6.61349
    CHANNELS 3 Zrotation Xrotation Yrotation
    JOINT Spine1
    {
      OFFSET 7.38963 1.71661e-005 0
      CHANNELS 3 Zrotation Xrotation Yrotation
      JOINT Spine2
      {
        OFFSET 11.9445 1.14441e-005 0
        CHANNELS 3 Zrotation Xrotation Yrotation
        JOINT Spine3
        {
          OFFSET 14.7254 4.19617e-005 0
          CHANNELS 3 Zrotation Xrotation Yrotation
          JOINT Spine4
          {
            OFFSET 10.9679 0 0
            CHANNELS 3 Zrotation Xrotation Yrotation
            JOINT RightShoulder
            {
              OFFSET 2.46616 -1.6653 3.69651
              CHANNELS 3 Zrotation Xrotation Yrotation
              JOINT RightArm
              {
                OFFSET 13.0012 0 0
                CHANNELS 3 Zrotation Xrotation Yrotation
                JOINT RightForeArm
                {
                  OFFSET 28.7848 1.62311e-005 0
                  CHANNELS 3 Zrotation Xrotation Yrotation
                  JOINT RightHand
                  {
                    OFFSET 26.5688 1.62095e-005 0
                    CHANNELS 3 Zrotation Xrotation Yrotation
                    End Site
                    {
                      OFFSET 0 0 0
                    }
                  }
                }
              }
            }
            JOINT LeftShoulder
            {
              OFFSET 2.38034 -1.29275 -3.7523
              CHANNELS 3 Zrotation Xrotation Yrotation
              JOINT LeftArm
              {
                OFFSET 16.3182 6.07031e-005 0
                CHANNELS 3 Zrotation Xrotation Yrotation
                JOINT LeftForeArm
                {
                  OFFSET 27.0901 0 0
                  CHANNELS 3 Zrotation Xrotation Yrotation
                  JOINT LeftHand
                  {
                    OFFSET 24.5451 1.51738e-005 0
                    CHANNELS 3 Zrotation Xrotation Yrotation
                    End Site
                    {
                      OFFSET 0 0 0
                    }
                  }
                }
              }
            }
            JOINT Neck
            {
              OFFSET 5.0226 -0.0266342 0
              CHANNELS 3 Zrotation Xrotation Yrotation
              JOINT Head
              {
                OFFSET 6.69364 2.86102e-005 0
                CHANNELS 3 Zrotation Xrotation Yrotation
                End Site
                {
                  OFFSET 0 0 0
                }
              }
            }
          }
        }
      }
    }
  }
}
MOTION
Frames:	10
Frame Time:	0.0416667
-102.855 22.5325 116.138 -9.71188 -11.1317 -89.664 -144.712 25.337 108.238 -61.2245 23.3481 -15.742 81.7217 11.3913 -6.4757 35.0029 -3.44441 16.5741 168.097 6.40543 82.8509 -36.8782 -16.8898 0.47091 72.8558 -7.54738 0.783541 29.8394 -1.75462 5.55057 -0.0468998 6.99443 -89.4544 12.883 0.168337 1.07055 1.21161 0.215286 1.06211 -21.32 -0.161179 1.07166 -1.30741 -0.161187 1.07165 87.7466 -26.3685 -112.902 -139.412 67.6863 135.517 -28.706 -0.192983 -148.139 -5.5168 -0.736657 11.3784 -88.8248 -39.7333 78.2487 -29.8312 -34.1378 -78.1851 51.3082 -14.3688 -108.36 -13.5115 -0.998563 4.92193 38.9806 -1.89447 1.16462 -3.9598 -2.34043 0.0607085 
-101.551 23.5746 118.251 -9.75715 -7.12978 -89.0479 -147.459 21.6029 108.455 -58.2835 18.9694 -14.876 67.9239 3.00721 -5.29904 33.0201 -3.57824 13.9966 166.894 10.075 81.8439 -40.9424 -16.9224 1.1616 73.2266 -7.50532 1.12897 31.5352 -2.54891 6.2034 0.296674 6.96132 -89.6382 12.9492 0.762663 0.630795 1.2783 0.789692 0.596599 -21.2566 0.537834 0.830821 -1.24401 0.53783 0.8308 87.1657 -24.8022 -114.916 -142.007 68.508 135.37 -31.6126 -2.43903 -143.56 -6.50233 -0.78204 9.48736 -88.8569 -39.7168 78.1899 -29.3675 -31.654 -80.0102 54.6626 -13.4674 -105.578 -14.0738 -1.07229 5.18401 37.9352 -1.02108 3.07311 -3.6945 -2.39872 -1.49382 
-99.5549 24.5443 120.25 -9.71181 -3.12019 -87.9582 -150.091 16.3373 107.784 -50.3459 10.7632 -14.8752 69.4638 3.76293 -5.35325 29.7032 -5.48068 14.0357 166.703 13.6883 80.9606 -44.8181 -19.7173 1.1096 74.8583 -8.36506 1.72646 32.9773 -3.04068 5.89394 0.703523 6.99046 -89.889 12.893 1.45021 0.0479165 1.22289 1.4509 -0.0159901 -21.3181 1.36874 0.481638 -1.30546 1.36874 0.481606 88.6063 -21.3916 -113.686 -145.849 70.1872 138.561 -35.3075 -2.67945 -139.639 -5.10842 -0.573391 8.74402 -88.5722 -37.9181 78.2325 -32.4663 -29.4086 -83.7421 57.3447 -12.1275 -103.756 -15.6699 -1.25395 5.5826 38.0634 -0.65471 3.18074 -4.12673 -2.10172 -1.36044 
-97.0993 25.6509 122.016 -10.3454 -2.06976 -88.2777 -150.767 13.4908 106.469 -40.9024 10.3564 -16.0657 76.7815 8.03995 -7.11942 33.7961 -4.72023 18.0124 165.358 16.1891 79.1246 -47.8338 -21.9731 1.53917 76.8131 -9.8726 0.700217 36.312 -4.32366 6.11344 0.76861 7.14662 -90.1106 12.5848 1.47406 -0.394238 0.914573 1.45526 -0.458772 -21.6273 1.52438 0.0670952 -1.61468 1.52438 0.0671015 89.5593 -17.9241 -113.472 -151.344 71.8577 141.625 -39.3011 -4.07152 -134.768 -4.78578 -0.514082 8.26376 -88.7059 -38.6964 78.2011 -34.2381 -27.3132 -88.7593 62.1768 -10.3633 -101.34 -17.7548 -1.27055 4.36078 38.4744 0.307752 5.27668 -4.18244 -2.19323 -2.82637 
-95.0837 26.9144 123.215 -11.265 -1.05492 -88.0581 -151.418 14.5295 105.909 -39.7192 14.5141 -15.2959 79.8636 10.2961 -6.61262 37.0449 -3.59831 20.2603 164.57 18.5589 78.4812 -51.6801 -21.7595 1.80731 78.0803 -10.5725 0.641529 40.0146 -5.13164 1.32031 0.870179 7.32357 -90.1043 12.2309 1.6802 -0.396141 0.560949 1.66116 -0.469708 -21.9829 1.72155 0.127291 -1.97029 1.72154 0.127276 89.8474 -17.9003 -112.797 -159.271 74.4307 145.781 -44.7988 -4.41181 -128.944 -1.94553 -0.174499 7.55717 -88.6106 -34.8705 77.3728 -37.2517 -25.0596 -92.5759 67.8803 -8.19509 -99.7582 -19.1087 -1.20931 3.22513 37.8779 -0.822762 2.75139 -3.2097 -2.06437 -0.56263 
-93.6679 27.8975 124.587 -11.9003 1.43914 -88.0289 -151.128 15.8214 105.726 -43.4636 15.2476 -14.6398 82.7799 11.4858 -8.52101 36.7838 -3.94244 20.7445 164.351 22.3133 78.2488 -57.4925 -20.6311 1.57336 78.6708 -10.781 0.175092 38.2215 -4.41977 1.62533 0.946618 7.38193 -90.1187 12.115 1.82568 -0.438221 0.445227 1.80462 -0.518189 -22.1002 1.87294 0.130896 -2.0876 1.87294 0.130919 89.1486 -16.8543 -115.112 -162.464 76.6296 146.673 -47.9183 -6.30588 -124.343 -3.36822 -0.342952 8.07129 -88.0429 -33.6225 78.0667 -37.5173 -24.5888 -94.9103 69.8905 -5.63639 -98.1846 -19.4142 -1.35179 4.03545 36.8126 -0.646296 2.67864 -2.89506 -1.84185 -1.04304 
-92.9936 27.8368 126.202 -12.1534 2.05004 -87.6559 -150.715 17.3659 105.646 -47.3481 17.1269 -14.2563 84.0453 12.3086 -8.46525 35.3004 -4.73295 20.3498 162.511 23.8116 77.4246 -59.4302 -19.9605 2.40929 78.276 -10.4973 -0.128994 38.5414 -4.48127 1.09873 0.9285 7.31342 -90.2602 12.2539 1.72211 -0.712265 0.583898 1.68907 -0.787411 -21.9603 1.85653 -0.161606 -1.94766 1.85652 -0.161619 89.922 -16.5289 -113.433 -179.599 79.7544 163.688 -54.877 -5.50587 -120.797 1.09813 0.114706 5.75909 -87.3479 -32.2881 79.0121 -39.2797 -22.2466 -96.1241 72.4832 -4.0323 -97.3346 -20.0203 -1.22799 2.95342 37.5059 0.145761 2.9919 -3.27897 -1.25814 -1.624 
-92.8016 26.5642 127.777 -12.5439 2.7178 -86.9982 -149.295 18.7403 106.269 -52.0513 17.8655 -14.2765 83.4223 11.7703 -8.78894 35.5946 -4.60862 20.5055 161.442 23.1144 76.2627 -59.0086 -21.3515 2.68926 77.912 -10.3832 0.0319207 39.8872 -4.99175 0.633378 1.02283 7.19895 -90.3177 12.4841 1.881 -0.851746 0.814159 1.84167 -0.933739 -21.7316 2.05 -0.246843 -1.71892 2.04998 -0.246863 91.5558 -15.3166 -110.062 166.282 79.2825 -176.666 -55.6396 -3.65571 -122.688 4.65161 0.459009 5.42728 -88.6558 -29.8447 75.8245 -40.4452 -22.7467 -95.9801 73.3594 -2.19537 -96.8631 -20.4023 -1.1906 2.55437 39.4416 -1.09755 -0.608082 -5.22887 -0.759922 1.19744 
-92.8997 24.7049 129.342 -12.6472 1.90761 -86.7702 -148.703 18.1681 106.416 -53.5892 19.0167 -14.2501 84.1833 12.221 -8.69573 35.2015 -4.81836 20.4023 159.643 21.6802 74.0383 -57.4621 -23.0756 3.40886 78.3877 -10.652 0.929592 39.3628 -4.71639 0.246767 1.01643 7.03429 -90.4071 12.8144 1.82363 -1.03176 1.14427 1.77646 -1.11103 -21.4003 2.04936 -0.435827 -1.38769 2.04937 -0.435808 92.68 -11.3337 -109.435 -171.122 78.1041 174.138 -47.1935 -0.450027 -131.464 7.00458 0.741585 6.41437 -87.1006 -30.222 78.9279 -39.8815 -16.4698 -95.7621 74.1886 -2.40762 -95.8288 -20.9801 -1.1615 2.16073 39.4714 -0.438952 1.00062 -5.25406 -0.888972 -0.453028 
-93.1449 23.1047 130.7 -12.4147 0.21834 -86.4109 -150.219 15.2664 105.809 -50.7663 17.8828 -13.5873 87.1221 13.5245 -9.68891 35.0321 -4.58718 19.547 157.585 20.1856 72.1191 -55.4078 -24.8897 4.72123 78.2391 -10.6049 1.30468 38.7697 -4.41922 -0.051161 1.05526 6.87233 -90.3844 13.1389 1.90949 -1.00525 1.46892 1.86338 -1.08834 -21.0768 2.1233 -0.384702 -1.06417 2.12328 -0.384708 92.1786 -14.7956 -108.8 -144.815 75.4435 161.956 -38.6054 3.31897 -141.796 3.32237 0.430458 8.32276 -87.4642 -24.8907 76.6168 -44.6883 -13.6387 -95.5995 76.2716 -1.95036 -96.3874 -20.9324 -1.18656 2.33248 38.5918 -2.36953 -2.09317 -4.58667 -1.26272 2.27278 
